<svg id="Camada_1" data-name="Camada 1" xmlns="http://www.w3.org/2000/svg" viewBox="0 0 757.01 541.27"><defs><style>.cls-1{fill:#e02041;}</style></defs><title>logo_simple</title><path class="cls-1" d="M447.88,333.51a7,7,0,0,0-7-7H382.12a7,7,0,1,0,0,14h58.76A7,7,0,0,0,447.88,333.51Z" transform="translate(-375.12 -69.52)"/><path class="cls-1" d="M1132.13,489.34A91.35,91.35,0,0,0,1040.79,398c-2.16,0-4.29.1-6.4.25l-46.64-101a26.21,26.21,0,0,0-5-7.27,14.92,14.92,0,0,0-13.07-7.88h-3.46a25.87,25.87,0,0,0-4.82,0H936.11l-2.3-17.57a20.64,20.64,0,0,0-20.55-20.61H852.84c12.61-18.47,23.27-32.65,27.09-34,.35,0,.7.06,1.06.06h0a70.44,70.44,0,0,0,68-53.05h20.22a57.11,57.11,0,0,0-20.56-35.64A70.44,70.44,0,0,0,881,69.52h0a70.1,70.1,0,0,0-45.47,123.56c-90.53,1.65-141,40.61-155.64,54a20.65,20.65,0,0,0-9.65,17.43V266a20.64,20.64,0,0,0,20.54,20.61l20.71.08a414.71,414.71,0,0,0-44.68,70.67H641.48a14.68,14.68,0,0,0,1.52-4.23l25.53-147.39c1.32-7.64-4.28-13.93-12.45-14l-139.69-.9c-8.17-.06-15.94,6.15-17.27,13.8L473.59,352a12.3,12.3,0,0,0,.23,5.33H434a9.29,9.29,0,0,0-9.26,9.26v1a9.28,9.28,0,0,0,9.26,9.26h86.45c.13,0,.26,0,.4,0H922.08c-64.49-52-129-39.53-129-39.53s14.3-23.47,31.4-50.28l28.59.1a14.81,14.81,0,0,0-3.76,9.79,15,15,0,0,0,14.93,14.93h73.5a25.9,25.9,0,0,0,2.15,7.38l29.81,64.57-11.48,11.49H856.46a6.26,6.26,0,1,0,0,12.51H950a5.18,5.18,0,0,1,3.93,5v.64a5.12,5.12,0,0,1-1.73,3.81H779.06a8.79,8.79,0,0,0,0,17.57H918.71l-.54.53h.68a5.93,5.93,0,0,1,5.9,5.9V442a5.93,5.93,0,0,1-5.9,5.9H914a8.8,8.8,0,0,0-1.94-.23H729.34a8.79,8.79,0,0,0,0,17.57H902.21a8.57,8.57,0,0,1,3.43,6.83v.1a8.65,8.65,0,0,1-8.63,8.63L690.9,478.92a10,10,0,0,0-9.95,9.95v2.64a10,10,0,0,0,9.95,9.95H871.25a9.76,9.76,0,0,0,3.21-.58,5.85,5.85,0,0,1,4.21,5.6v.7a5.88,5.88,0,0,1-2.83,5H664.93a94.41,94.41,0,0,1-4.55,17.12,108,108,0,0,1-6.3,14.06h79.75l-.44.44H919.12c-6.78,37,16.21,65.89,56.19,67,44.76,1.18,93.84-32.93,109.65-76.21,5.41-14.82,6.21-28.8,3.13-40.82h43.82C1132,492.27,1132.13,490.82,1132.13,489.34Zm-100.3,43.8c-5.42,14.9-22.34,26.66-37.78,26.26s-23.53-12.85-18.1-27.78,22.38-26.66,37.82-26.26S1037.29,518.21,1031.83,533.14Z" transform="translate(-375.12 -69.52)"/><path class="cls-1" d="M1042.54,369.9a26.57,26.57,0,0,0,4.4-.45V314.13A26,26,0,0,0,1016.2,340v3.52A26.42,26.42,0,0,0,1042.54,369.9Z" transform="translate(-375.12 -69.52)"/><path class="cls-1" d="M746.12,434.89a8.59,8.59,0,0,0,8.57-8.56h0a8.6,8.6,0,0,0-8.57-8.57H682.23a8.6,8.6,0,0,0-8.57,8.57h0a8.59,8.59,0,0,0,8.57,8.56Z" transform="translate(-375.12 -69.52)"/><path class="cls-1" d="M816,403.93a5.27,5.27,0,0,0,0-10.54h-27a5.27,5.27,0,0,0,0,10.54Z" transform="translate(-375.12 -69.52)"/><path class="cls-1" d="M434.77,294.36h27a5.27,5.27,0,1,0,0-10.54h-27a5.27,5.27,0,1,0,0,10.54Z" transform="translate(-375.12 -69.52)"/><path class="cls-1" d="M491,494.24A5.28,5.28,0,0,0,485.7,489h-27a5.27,5.27,0,0,0,0,10.54h27A5.28,5.28,0,0,0,491,494.24Z" transform="translate(-375.12 -69.52)"/><path class="cls-1" d="M692.34,199.45h60.4a6.55,6.55,0,0,0,0-13.1h-60.4a6.55,6.55,0,0,0,0,13.1Z" transform="translate(-375.12 -69.52)"/><path class="cls-1" d="M645.34,433.57a6.59,6.59,0,1,0,0-13.17h-58a6.59,6.59,0,0,0,0,13.17Z" transform="translate(-375.12 -69.52)"/><path class="cls-1" d="M505.52,469.52a6.61,6.61,0,0,0-6.59-6.59H441a6.59,6.59,0,0,0,0,13.18h58A6.61,6.61,0,0,0,505.52,469.52Z" transform="translate(-375.12 -69.52)"/><path class="cls-1" d="M595.43,448.4c-44.76-1.22-93.87,32.9-109.65,76.18s7.69,79.34,52.45,80.56S632.1,572.24,647.88,529,640.19,449.61,595.43,448.4ZM590.78,529c-5.43,14.93-22.35,26.66-37.79,26.26s-23.52-12.84-18.06-27.78,22.34-26.66,37.78-26.25S596.24,514.06,590.78,529Z" transform="translate(-375.12 -69.52)"/></svg>