<svg id="Camada_1" data-name="Camada 1" xmlns="http://www.w3.org/2000/svg" viewBox="0 0 1054.88 242.3"><defs><style>.cls-1{fill:#e02041;}</style></defs><title>logo_extended</title><path class="cls-1" d="M254.69,1155.82a3.14,3.14,0,0,0-3.13-3.13H225.25a3.13,3.13,0,0,0,0,6.26h26.31A3.14,3.14,0,0,0,254.69,1155.82Z" transform="translate(-222.12 -1037.65)"/><path class="cls-1" d="M561,1225.58a40.89,40.89,0,0,0-40.89-40.89c-1,0-1.92,0-2.86.11l-20.88-45.22a11.83,11.83,0,0,0-2.25-3.26,6.69,6.69,0,0,0-5.86-3.53h-1.54a13,13,0,0,0-2.16,0H473.25l-1-7.86a9.24,9.24,0,0,0-9.2-9.23H436c5.64-8.27,10.41-14.61,12.12-15.21l.48,0h0A31.54,31.54,0,0,0,479,1076.76h9.05a25.58,25.58,0,0,0-9.21-16,31.52,31.52,0,0,0-30.28-23.16h0A31.38,31.38,0,0,0,428.22,1093c-40.52.74-63.1,18.18-69.67,24.17a9.22,9.22,0,0,0-4.32,7.8v.66a9.24,9.24,0,0,0,9.19,9.23l9.28,0a185.08,185.08,0,0,0-20,31.63H341.36a6.79,6.79,0,0,0,.68-1.89l11.43-66c.59-3.42-1.92-6.24-5.58-6.26l-62.53-.41a8,8,0,0,0-7.73,6.18l-11.43,66a5.4,5.4,0,0,0,.11,2.38H248.47a4.16,4.16,0,0,0-4.14,4.15v.45a4.16,4.16,0,0,0,4.14,4.15H467c-28.87-23.28-57.74-17.69-57.74-17.69s6.4-10.51,14-22.51l12.8,0a6.62,6.62,0,0,0-1.68,4.38,6.7,6.7,0,0,0,6.68,6.68H474a11.65,11.65,0,0,0,1,3.3l13.34,28.91-5.14,5.14H437.59a2.8,2.8,0,0,0,0,5.6h41.88a2.31,2.31,0,0,1,1.76,2.24v.28a2.29,2.29,0,0,1-.77,1.71H403a3.93,3.93,0,1,0,0,7.86h62.51l-.24.24h.3a2.65,2.65,0,0,1,2.64,2.64v.3a2.65,2.65,0,0,1-2.64,2.64h-2.18a4.14,4.14,0,0,0-.87-.1H380.69a3.93,3.93,0,0,0,0,7.86h77.38a3.84,3.84,0,0,1,1.54,3.06v.05a3.87,3.87,0,0,1-3.86,3.86l-92.27-.83a4.46,4.46,0,0,0-4.45,4.45v1.18a4.46,4.46,0,0,0,4.45,4.45h80.74a4.37,4.37,0,0,0,1.44-.26,2.63,2.63,0,0,1,1.88,2.51v.32a2.61,2.61,0,0,1-1.27,2.23H351.86a42.73,42.73,0,0,1-2,7.66,48.35,48.35,0,0,1-2.82,6.3h35.7l-.2.19h83.14c-3,16.57,7.26,29.5,25.16,30,20,.52,42-14.75,49.08-34.12,2.43-6.64,2.78-12.89,1.4-18.27H560.9C560.93,1226.89,561,1226.24,561,1225.58Zm-44.9,19.61c-2.43,6.66-10,11.93-16.91,11.75s-10.53-5.75-8.11-12.43,10-11.94,16.93-11.76S518.55,1238.5,516.1,1245.19Z" transform="translate(-222.12 -1037.65)"/><path class="cls-1" d="M520.9,1172.11a11.52,11.52,0,0,0,2-.2v-24.76a11.52,11.52,0,0,0-2-.2,11.83,11.83,0,0,0-11.8,11.79v1.57A11.83,11.83,0,0,0,520.9,1172.11Z" transform="translate(-222.12 -1037.65)"/><path class="cls-1" d="M388.2,1201.2a3.85,3.85,0,0,0,3.84-3.83h0a3.85,3.85,0,0,0-3.84-3.83H359.6a3.84,3.84,0,0,0-3.83,3.83h0a3.84,3.84,0,0,0,3.83,3.83Z" transform="translate(-222.12 -1037.65)"/><path class="cls-1" d="M419.46,1187.34a2.36,2.36,0,1,0,0-4.71H407.37a2.36,2.36,0,1,0,0,4.71Z" transform="translate(-222.12 -1037.65)"/><path class="cls-1" d="M248.82,1138.3h12.09a2.36,2.36,0,0,0,0-4.72H248.82a2.36,2.36,0,0,0,0,4.72Z" transform="translate(-222.12 -1037.65)"/><path class="cls-1" d="M274,1227.77a2.36,2.36,0,0,0-2.36-2.36H259.53a2.36,2.36,0,1,0,0,4.72h12.09A2.36,2.36,0,0,0,274,1227.77Z" transform="translate(-222.12 -1037.65)"/><path class="cls-1" d="M364.13,1095.81h27a2.94,2.94,0,1,0,0-5.87h-27a2.94,2.94,0,1,0,0,5.87Z" transform="translate(-222.12 -1037.65)"/><path class="cls-1" d="M343.09,1200.61a2.95,2.95,0,0,0,0-5.89H317.14a2.95,2.95,0,1,0,0,5.89Z" transform="translate(-222.12 -1037.65)"/><path class="cls-1" d="M280.5,1216.71a3,3,0,0,0-2.95-3h-26a3,3,0,1,0,0,5.9h26A3,3,0,0,0,280.5,1216.71Z" transform="translate(-222.12 -1037.65)"/><path class="cls-1" d="M320.74,1207.25c-20-.54-42,14.73-49.08,34.1s3.44,35.52,23.48,36.07,42-14.73,49.08-34.11S340.78,1207.79,320.74,1207.25Zm-2.08,36.08c-2.43,6.68-10,11.93-16.91,11.75s-10.53-5.75-8.09-12.43,10-11.94,16.91-11.75S321.11,1236.64,318.66,1243.33Z" transform="translate(-222.12 -1037.65)"/><path class="cls-1" d="M694.9,1146.21v19.2H646.56v-76.12h21.25v56.92Z" transform="translate(-222.12 -1037.65)"/><path class="cls-1" d="M704.3,1089.29h21.25v76.12H704.3Z" transform="translate(-222.12 -1037.65)"/><path class="cls-1" d="M817,1124.73c0,24.91-16.26,42.6-40.1,42.6-23.32,0-40.55-16.76-40.55-39.92s16.91-40,40.36-40c20,0,36.28,12.48,39.5,30.17h-22c-2.76-6.41-9.57-10.53-17.33-10.53-11.4,0-19.09,8.24-19.09,20.4s7.56,20.29,19.09,20.29c8,0,14.87-3.88,17.26-9.75H775.28v-13.22Z" transform="translate(-222.12 -1037.65)"/><path class="cls-1" d="M877.25,1147.22v18.19H827.62v-76.12h48.71v18.13H848.5v11.21h25v17.2h-25v11.39Z" transform="translate(-222.12 -1037.65)"/><path class="cls-1" d="M889.27,1089.29h21.25v76.12H889.27Z" transform="translate(-222.12 -1037.65)"/><path class="cls-1" d="M953.84,1142.12h-7.6v23.29h-21v-76.12h33c16.41,0,28.31,11,28.31,26.94a24.38,24.38,0,0,1-12.08,21.5l15.11,27.68H966.19Zm-7.6-17.66h9.58c5.86,0,9.24-3.53,9.24-8.29s-3.38-8.24-9.24-8.24h-9.58Z" transform="translate(-222.12 -1037.65)"/><path class="cls-1" d="M998.78,1089.29H1020v76.12H998.78Z" transform="translate(-222.12 -1037.65)"/><path class="cls-1" d="M1102.68,1089.29v76.12h-17.34l-30.24-41.31v41.31h-20.32v-76.12h18.35l29.23,39.94v-39.94Z" transform="translate(-222.12 -1037.65)"/><path class="cls-1" d="M1182.58,1089.29v76.12h-21.16v-29.22h-22.84v29.22h-21.16v-76.12h21.16v27.46h22.84v-27.46Z" transform="translate(-222.12 -1037.65)"/><path class="cls-1" d="M1235.19,1167.34c-24.47,0-41.93-16.72-41.93-40s17.46-40,41.93-40,41.81,16.66,41.81,40-17.4,40-41.81,40Zm0-19.51c11.59,0,20-8.56,20-20.47s-8.38-20.48-20-20.48-20.1,8.62-20.1,20.47,8.52,20.47,20.1,20.47Z" transform="translate(-222.12 -1037.65)"/><path class="cls-1" d="M647.08,1229.4a1.86,1.86,0,0,1-.52-1.4v-23.22a1.86,1.86,0,0,1,.52-1.4,1.91,1.91,0,0,1,1.44-.52h14.12a2,2,0,0,1,1.36.42,1.5,1.5,0,0,1,.48,1.19,1.45,1.45,0,0,1-.48,1.17,2,2,0,0,1-1.36.4H650.43v8.53h11.44a2,2,0,0,1,1.37.42,1.72,1.72,0,0,1,0,2.38,2,2,0,0,1-1.37.42H650.43v8.94h12.21c1.23,0,1.84.53,1.84,1.58a1.5,1.5,0,0,1-.48,1.19,2,2,0,0,1-1.36.42H648.52A1.91,1.91,0,0,1,647.08,1229.4Z" transform="translate(-222.12 -1037.65)"/><path class="cls-1" d="M709.92,1203.22a2,2,0,0,1,.51,1.44v23.46a2,2,0,0,1-.53,1.44,1.85,1.85,0,0,1-1.39.55,1.76,1.76,0,0,1-1.53-.76l-15.05-19.85v18.62a2,2,0,0,1-.52,1.44,2,2,0,0,1-2.7,0,2,2,0,0,1-.5-1.46v-23.46a2,2,0,0,1,.54-1.44,1.81,1.81,0,0,1,1.38-.55,1.76,1.76,0,0,1,1.53.76l15.05,19.89v-18.66a2.08,2.08,0,0,1,.5-1.44,1.71,1.71,0,0,1,1.34-.55A1.79,1.79,0,0,1,709.92,1203.22Z" transform="translate(-222.12 -1037.65)"/><path class="cls-1" d="M742.93,1229.56a2,2,0,0,1-.56-1.44v-22h-7.68c-1.22,0-1.84-.55-1.84-1.65a1.55,1.55,0,0,1,.48-1.23,2,2,0,0,1,1.36-.42H754a2,2,0,0,1,1.36.42,1.55,1.55,0,0,1,.48,1.23c0,1.1-.61,1.65-1.84,1.65h-7.68v22a2,2,0,0,1-.53,1.44,2.19,2.19,0,0,1-2.9,0Z" transform="translate(-222.12 -1037.65)"/><path class="cls-1" d="M799.8,1228.54a1.5,1.5,0,0,1-.56,1.17,1.91,1.91,0,0,1-1.28.48,2,2,0,0,1-1.73-1l-5.15-8a5.39,5.39,0,0,0-1.88-1.94,5.32,5.32,0,0,0-2.61-.56h-4.33v9.37a2.05,2.05,0,0,1-.52,1.46,2.19,2.19,0,0,1-2.86,0,2,2,0,0,1-.54-1.46v-23.34a1.86,1.86,0,0,1,.52-1.4,1.91,1.91,0,0,1,1.44-.52h9.56q4.49,0,6.85,2a7.25,7.25,0,0,1,2.36,5.84,7.33,7.33,0,0,1-1.81,5.16,8.52,8.52,0,0,1-5.14,2.52,4.49,4.49,0,0,1,1.8,1,8.18,8.18,0,0,1,1.58,1.92l4,6.21A1.9,1.9,0,0,1,799.8,1228.54Zm-10.41-13a7,7,0,0,0,4.44-1.17,4.39,4.39,0,0,0,1.44-3.62,4.33,4.33,0,0,0-1.42-3.59,7.1,7.1,0,0,0-4.46-1.14h-7.17v9.52Z" transform="translate(-222.12 -1037.65)"/><path class="cls-1" d="M824.54,1229.4a1.86,1.86,0,0,1-.52-1.4v-23.22a1.86,1.86,0,0,1,.52-1.4,1.91,1.91,0,0,1,1.44-.52H840.1a2,2,0,0,1,1.37.42,1.5,1.5,0,0,1,.48,1.19,1.45,1.45,0,0,1-.48,1.17,2.07,2.07,0,0,1-1.37.4H827.9v8.53h11.44a2,2,0,0,1,1.36.42,1.72,1.72,0,0,1,0,2.38,2,2,0,0,1-1.36.42H827.9v8.94h12.2c1.23,0,1.85.53,1.85,1.58a1.5,1.5,0,0,1-.48,1.19,2,2,0,0,1-1.37.42H826A1.91,1.91,0,0,1,824.54,1229.4Z" transform="translate(-222.12 -1037.65)"/><path class="cls-1" d="M887.07,1216a1.49,1.49,0,0,1,.44,1.15v9a3.68,3.68,0,0,1-.36,1.88,2.57,2.57,0,0,1-1.44.92,17.52,17.52,0,0,1-3.65,1,25.91,25.91,0,0,1-4.18.35,14.47,14.47,0,0,1-7.1-1.65,11,11,0,0,1-4.57-4.76,16.35,16.35,0,0,1-1.58-7.45,16.12,16.12,0,0,1,1.58-7.37,11.15,11.15,0,0,1,4.51-4.78,13.73,13.73,0,0,1,6.89-1.67,15,15,0,0,1,5,.79,10.8,10.8,0,0,1,3.9,2.28,1.89,1.89,0,0,1,.76,1.54,1.79,1.79,0,0,1-.38,1.17,1.15,1.15,0,0,1-.92.48,1.52,1.52,0,0,1-.62-.12,4.69,4.69,0,0,1-.69-.38,14,14,0,0,0-3.41-1.94,10.38,10.38,0,0,0-3.53-.56,8.29,8.29,0,0,0-6.68,2.71q-2.31,2.7-2.31,7.85c0,3.51.79,6.16,2.36,8S875,1227,878,1227a19.12,19.12,0,0,0,5.91-.92v-7.56h-5a1.75,1.75,0,0,1-1.21-.4,1.41,1.41,0,0,1-.45-1.1,1.39,1.39,0,0,1,.45-1.09,1.7,1.7,0,0,1,1.21-.41h7A1.62,1.62,0,0,1,887.07,1216Z" transform="translate(-222.12 -1037.65)"/><path class="cls-1" d="M936.76,1228.39a1.55,1.55,0,0,1-.59,1.22,2,2,0,0,1-1.33.5,1.65,1.65,0,0,1-.94-.29,1.77,1.77,0,0,1-.67-.82l-2.53-5.76H916.65l-2.54,5.76a1.82,1.82,0,0,1-1.65,1.11,2,2,0,0,1-1.36-.5,1.52,1.52,0,0,1-.59-1.22,2,2,0,0,1,.19-.77l10.82-23.69a2,2,0,0,1,.87-1,2.41,2.41,0,0,1,1.24-.34,2.45,2.45,0,0,1,1.25.34,2,2,0,0,1,.87,1l10.82,23.69A2,2,0,0,1,936.76,1228.39Zm-18.69-8.3h11.25l-5.65-12.7Z" transform="translate(-222.12 -1037.65)"/><path class="cls-1" d="M963.19,1229.42a11.13,11.13,0,0,1-4.2-2.22,2,2,0,0,1-.73-1.58,1.85,1.85,0,0,1,.38-1.17,1.16,1.16,0,0,1,.92-.48,2.57,2.57,0,0,1,1.31.5,12.75,12.75,0,0,0,7.79,2.53,8.17,8.17,0,0,0,4.72-1.15,3.79,3.79,0,0,0,1.65-3.3,2.71,2.71,0,0,0-1.53-2.53,20.25,20.25,0,0,0-4.91-1.62,29.46,29.46,0,0,1-5.3-1.57,8,8,0,0,1-3.25-2.4,6.12,6.12,0,0,1-1.17-3.86,7,7,0,0,1,1.29-4.16,8.41,8.41,0,0,1,3.59-2.84,12.86,12.86,0,0,1,5.26-1,15.93,15.93,0,0,1,5,.77,10.64,10.64,0,0,1,3.91,2.26,2,2,0,0,1,.77,1.58,1.83,1.83,0,0,1-.4,1.15,1.21,1.21,0,0,1-.94.5,2.53,2.53,0,0,1-1.27-.5,13.65,13.65,0,0,0-3.32-1.94,10.45,10.45,0,0,0-3.74-.59,7.73,7.73,0,0,0-4.61,1.2,3.94,3.94,0,0,0-1.65,3.36,3.1,3.1,0,0,0,1.46,2.79,16,16,0,0,0,4.68,1.7,39.65,39.65,0,0,1,5.47,1.6,8.33,8.33,0,0,1,3.34,2.26,5.48,5.48,0,0,1,1.25,3.71,6.82,6.82,0,0,1-1.29,4.09,8.27,8.27,0,0,1-3.61,2.76,13.69,13.69,0,0,1-5.35,1A18.72,18.72,0,0,1,963.19,1229.42Z" transform="translate(-222.12 -1037.65)"/></svg>